# xmcd
#
# Track frame offsets:
#	150
#	18964
#	38003
#	61530
#	85205
#	110076
#	131043
#	153847
#	171397
#	191694
#	208769
#
# Disc length: 3103 seconds
#
# Revision: 1
# Processed by: cddbd v1.4PL0 Copyright (c) Steve Scherf et al.
# Submitted via: audiograbber 1.80.04
#
DISCID=8e0c1d0b
DTITLE=Blues Company - Magyarország Motorország
DYEAR=1900
DGENRE=
TTITLE0=Csak a kezedet nyújtsd...
TTITLE1=Artista
TTITLE2=Klárika, a guminõ
TTITLE3=Büdös a szerelem
TTITLE4=Budapest, London, Párizs
TTITLE5=Vár a gyár
TTITLE6=Fekete angyal
TTITLE7=Magyarország - Motorország
TTITLE8=Visszajárnak a tegnapok
TTITLE9=Hazamennék hozzád
TTITLE10=Gázária
EXTD=
EXTT0=
EXTT1=
EXTT2=
EXTT3=
EXTT4=
EXTT5=
EXTT6=
EXTT7=
EXTT8=
EXTT9=
EXTT10=
PLAYORDER=
